<?xml version="1.0" encoding="UTF-8" standalone="no"?>
<!DOCTYPE svg PUBLIC "-//W3C//DTD SVG 20010904//EN"
              "http://www.w3.org/TR/2001/REC-SVG-20010904/DTD/svg10.dtd">

<svg xmlns="http://www.w3.org/2000/svg"
     width="2.39333in" height="2.58667in"
     viewBox="0 0 718 776">
  <path id="Selection"
        fill="none" stroke="black" stroke-width="1"
        d="M 1.00,0.00
           C 1.00,0.00 1.00,78.00 1.00,78.00
             1.00,78.00 0.00,93.00 0.00,93.00
             0.00,93.00 0.00,107.00 0.00,107.00
             0.00,107.00 551.00,107.00 551.00,107.00
             551.00,107.00 496.96,164.00 496.96,164.00
             496.96,164.00 401.91,264.00 401.91,264.00
             401.91,264.00 351.04,317.00 351.04,317.00
             351.04,317.00 324.91,345.00 324.91,345.00
             324.91,345.00 312.04,358.00 312.04,358.00
             312.04,358.00 266.91,406.00 266.91,406.00
             266.91,406.00 253.09,420.00 253.09,420.00
             253.09,420.00 189.91,487.00 189.91,487.00
             189.91,487.00 138.09,541.00 138.09,541.00
             138.09,541.00 100.04,581.00 100.04,581.00
             100.04,581.00 90.00,592.00 90.00,592.00
             90.00,592.00 54.91,629.00 54.91,629.00
             49.67,634.62 41.18,641.28 38.00,648.00
             38.00,648.00 93.00,602.25 93.00,602.25
             93.00,602.25 206.00,507.42 206.00,507.42
             206.00,507.42 423.00,325.42 423.00,325.42
             423.00,325.42 514.00,249.13 514.00,249.13
             514.00,249.13 645.00,139.27 645.00,139.27
             645.00,139.27 675.00,114.13 675.00,114.13
             683.16,107.12 686.98,107.03 687.00,96.00
             687.00,96.00 687.00,0.00 687.00,0.00
             687.00,0.00 1.00,0.00 1.00,0.00 Z
           M 679.00,128.00
           C 679.00,128.00 654.00,149.41 654.00,149.41
             654.00,149.41 621.00,177.08 621.00,177.08
             621.00,177.08 518.00,263.42 518.00,263.42
             518.00,263.42 217.00,515.92 217.00,515.92
             217.00,515.92 136.00,583.92 136.00,583.92
             136.00,583.92 75.00,635.00 75.00,635.00
             75.00,635.00 43.00,661.87 43.00,661.87
             34.84,668.88 31.02,668.97 31.00,680.00
             31.00,680.00 31.00,776.00 31.00,776.00
             31.00,776.00 717.00,776.00 717.00,776.00
             717.00,776.00 717.00,698.00 717.00,698.00
             717.00,698.00 718.00,683.00 718.00,683.00
             718.00,683.00 718.00,669.00 718.00,669.00
             718.00,669.00 167.00,669.00 167.00,669.00
             167.00,669.00 201.04,633.00 201.04,633.00
             201.04,633.00 279.04,551.00 279.04,551.00
             279.04,551.00 432.09,390.00 432.09,390.00
             432.09,390.00 483.91,336.00 483.91,336.00
             483.91,336.00 549.04,267.00 549.04,267.00
             549.04,267.00 617.96,195.00 617.96,195.00
             617.96,195.00 646.01,165.00 646.01,165.00
             646.01,165.00 670.00,140.00 670.00,140.00
             673.14,136.86 678.94,132.63 679.00,128.00 Z" />
</svg>
